{
  "accessors": [
    {
      "bufferView": 2,
      "componentType": 5126,
      "count": 65532,
      "max": [
        9.1664552688598633,
        9.1992158889770508,
        11.865802764892578
      ],
      "min": [
        -4.8535041809082031,
        -34.937332153320312,
        0.71764898300170898
      ],
      "type": "VEC3"
    },
    {
      "bufferView": 2,
      "byteOffset": 786384,
      "componentType": 5126,
      "count": 65532,
      "max": [
        0.99999511241912842,
        0.98098874092102051,
        0.99997299909591675
      ],
      "min": [
        -0.99990761280059814,
        -0.99999850988388062,
        -0.99931645393371582
      ],
      "type": "VEC3"
    },
    {
      "bufferView": 3,
      "componentType": 5126,
      "count": 65532,
      "max": [
        0.9987637996673584,
        0.99999570846557617,
        0.99622863531112671,
        1
      ],
      "min": [
        -0.99957507848739624,
        -0.99911439418792725,
        -0.99965882301330566,
        -1
      ],
      "type": "VEC4"
    },
    {
      "bufferView": 1,
      "componentType": 5126,
      "count": 65532,
      "max": [
        0.99773198366165161,
        0.99798399209976196
      ],
      "min": [
        0.004031000193208456,
        0.004031000193208456
      ],
      "type": "VEC2"
    },
    {
      "bufferView": 0,
      "componentType": 5125,
      "count": 344271,
      "max": [
        65531
      ],
      "min": [
        0
      ],
      "type": "SCALAR"
    },
    {
      "bufferView": 2,
      "byteOffset": 1572768,
      "componentType": 5126,
      "count": 65532,
      "max": [
        7.0049419403076172,
        9.1471977233886719,
        8.846588134765625
      ],
      "min": [
        -8.3090581893920898,
        -28.064300537109375,
        -9.8833074569702148
      ],
      "type": "VEC3"
    },
    {
      "bufferView": 2,
      "byteOffset": 2359152,
      "componentType": 5126,
      "count": 65532,
      "max": [
        0.99999421834945679,
        0.98098874092102051,
        0.9999576210975647
      ],
      "min": [
        -0.8936992883682251,
        -0.99999535083770752,
        -0.9999958872795105
      ],
      "type": "VEC3"
    },
    {
      "bufferView": 3,
      "byteOffset": 1048512,
      "componentType": 5126,
      "count": 65532,
      "max": [
        0.999866783618927,
        0.99999666213989258,
        0.98961800336837769,
        1
      ],
      "min": [
        -0.99993133544921875,
        -0.99713641405105591,
        -0.99989420175552368,
        -1
      ],
      "type": "VEC4"
    },
    {
      "bufferView": 1,
      "byteOffset": 524256,
      "componentType": 5126,
      "count": 65532,
      "max": [
        0.99798399209976196,
        0.99798399209976196
      ],
      "min": [
        0.004031000193208456,
        0.004031000193208456
      ],
      "type": "VEC2"
    },
    {
      "bufferView": 0,
      "byteOffset": 1377084,
      "componentType": 5125,
      "count": 337383,
      "max": [
        65531
      ],
      "min": [
        0
      ],
      "type": "SCALAR"
    },
    {
      "bufferView": 2,
      "byteOffset": 3145536,
      "componentType": 5126,
      "count": 65532,
      "max": [
        1.1027710437774658,
        9.4964389801025391,
        1.4097390174865723
      ],
      "min": [
        -10.39771842956543,
        -34.937332153320312,
        -9.1903076171875
      ],
      "type": "VEC3"
    },
    {
      "bufferView": 2,
      "byteOffset": 3931920,
      "componentType": 5126,
      "count": 65532,
      "max": [
        0.9997401237487793,
        0.99380266666412354,
        0.99505990743637085
      ],
      "min": [
        -0.9999808669090271,
        -0.99999290704727173,
        -0.99999922513961792
      ],
      "type": "VEC3"
    },
    {
      "bufferView": 3,
      "byteOffset": 2097024,
      "componentType": 5126,
      "count": 65532,
      "max": [
        0.99316740036010742,
        0.99999749660491943,
        0.98729711771011353,
        1
      ],
      "min": [
        -0.999961256980896,
        -0.99713641405105591,
        -0.99998211860656738,
        -1
      ],
      "type": "VEC4"
    },
    {
      "bufferView": 1,
      "byteOffset": 1048512,
      "componentType": 5126,
      "count": 65532,
      "max": [
        0.99785798788070679,
        0.99798399209976196
      ],
      "min": [
        0.015243000350892544,
        0.004031000193208456
      ],
      "type": "VEC2"
    },
    {
      "bufferView": 0,
      "byteOffset": 2726616,
      "componentType": 5125,
      "count": 356148,
      "max": [
        65531
      ],
      "min": [
        0
      ],
      "type": "SCALAR"
    },
    {
      "bufferView": 2,
      "byteOffset": 4718304,
      "componentType": 5126,
      "count": 15573,
      "max": [
        0.73212802410125732,
        -23.694503784179688,
        1.441398024559021
      ],
      "min": [
        -7.4349417686462402,
        -34.946643829345703,
        -2.7747349739074707
      ],
      "type": "VEC3"
    },
    {
      "bufferView": 2,
      "byteOffset": 4905180,
      "componentType": 5126,
      "count": 15573,
      "max": [
        0.99999535083770752,
        0.93019473552703857,
        0.88246440887451172
      ],
      "min": [
        -0.99901187419891357,
        -0.95905900001525879,
        -0.99995911121368408
      ],
      "type": "VEC3"
    },
    {
      "bufferView": 3,
      "byteOffset": 3145536,
      "componentType": 5126,
      "count": 15573,
      "max": [
        0.95833891630172729,
        0.99982863664627075,
        0.99405062198638916,
        1
      ],
      "min": [
        -0.99245846271514893,
        -0.88930201530456543,
        -0.9981989860534668,
        -1
      ],
      "type": "VEC4"
    },
    {
      "bufferView": 1,
      "byteOffset": 1572768,
      "componentType": 5126,
      "count": 15573,
      "max": [
        0.96006500720977783,
        0.89342397451400757
      ],
      "min": [
        0.004031000193208456,
        0.18331000208854675
      ],
      "type": "VEC2"
    },
    {
      "bufferView": 0,
      "byteOffset": 4151208,
      "componentType": 5125,
      "count": 85989,
      "max": [
        15572
      ],
      "min": [
        0
      ],
      "type": "SCALAR"
    }
  ],
  "asset": {
    "extras": {
      "author": "Geoffrey Marchal (https://sketchfab.com/geoffreymarchal)",
      "license": "CC-BY-NC-4.0 (http://creativecommons.org/licenses/by-nc/4.0/)",
      "source": "https://sketchfab.com/3d-models/signe-tegner-381cbf8a06f042b9b41932f1f7ada997",
      "title": "Signe Tegner"
    },
    "generator": "Sketchfab-4.97.1",
    "version": "2.0"
  },
  "bufferViews": [
    {
      "buffer": 0,
      "byteLength": 4495164,
      "byteOffset": 0,
      "name": "floatBufferViews",
      "target": 34963
    },
    {
      "buffer": 0,
      "byteLength": 1697352,
      "byteOffset": 4495164,
      "byteStride": 8,
      "name": "floatBufferViews",
      "target": 34962
    },
    {
      "buffer": 0,
      "byteLength": 5092056,
      "byteOffset": 6192516,
      "byteStride": 12,
      "name": "floatBufferViews",
      "target": 34962
    },
    {
      "buffer": 0,
      "byteLength": 3394704,
      "byteOffset": 11284572,
      "byteStride": 16,
      "name": "floatBufferViews",
      "target": 34962
    }
  ],
  "buffers": [
    {
      "byteLength": 14679276,
      "uri": "scene.bin"
    }
  ],
  "images": [
    {
      "uri": "textures/Material_0_baseColor.jpeg"
    }
  ],
  "materials": [
    {
      "doubleSided": true,
      "emissiveFactor": [
        0,
        0,
        0
      ],
      "name": "Material_0",
      "pbrMetallicRoughness": {
        "baseColorFactor": [
          1,
          1,
          1,
          1
        ],
        "baseColorTexture": {
          "index": 0,
          "texCoord": 0
        },
        "metallicFactor": 0,
        "roughnessFactor": 0.59999999999999998
      }
    }
  ],
  "meshes": [
    {
      "primitives": [
        {
          "attributes": {
            "NORMAL": 1,
            "POSITION": 0,
            "TANGENT": 2,
            "TEXCOORD_0": 3
          },
          "indices": 4,
          "material": 0,
          "mode": 4
        }
      ]
    },
    {
      "primitives": [
        {
          "attributes": {
            "NORMAL": 6,
            "POSITION": 5,
            "TANGENT": 7,
            "TEXCOORD_0": 8
          },
          "indices": 9,
          "material": 0,
          "mode": 4
        }
      ]
    },
    {
      "primitives": [
        {
          "attributes": {
            "NORMAL": 11,
            "POSITION": 10,
            "TANGENT": 12,
            "TEXCOORD_0": 13
          },
          "indices": 14,
          "material": 0,
          "mode": 4
        }
      ]
    },
    {
      "primitives": [
        {
          "attributes": {
            "NORMAL": 16,
            "POSITION": 15,
            "TANGENT": 17,
            "TEXCOORD_0": 18
          },
          "indices": 19,
          "material": 0,
          "mode": 4
        }
      ]
    }
  ],
  "nodes": [
    {
      "children": [
        1
      ],
      "name": "RootNode (gltf orientation matrix)",
      "rotation": [
        -0.70710678118654746,
        -0,
        -0,
        0.70710678118654757
      ]
    },
    {
      "children": [
        2
      ],
      "matrix": [
        0.26600506901741028,
        -0.96397161483764648,
        0,
        0,
        0,
        0,
        -1,
        0,
        0.96397161483764648,
        0.26600506901741028,
        0,
        0,
        -2.1017794609069824,
        -13.403345108032227,
        -10.643032073974609,
        1
      ],
      "name": "RootNode (model correction matrix)"
    },
    {
      "children": [
        3,
        4,
        5,
        6
      ],
      "name": "womanrock.obj.cleaner.gles"
    },
    {
      "mesh": 0,
      "name": ""
    },
    {
      "mesh": 1,
      "name": ""
    },
    {
      "mesh": 2,
      "name": ""
    },
    {
      "mesh": 3,
      "name": ""
    }
  ],
  "samplers": [
    {
      "magFilter": 9729,
      "minFilter": 9987,
      "wrapS": 10497,
      "wrapT": 10497
    }
  ],
  "scene": 0,
  "scenes": [
    {
      "name": "OSG_Scene",
      "nodes": [
        0
      ]
    }
  ],
  "textures": [
    {
      "sampler": 0,
      "source": 0
    }
  ]
}

